# xmcd
#
# Track frame offsets:
#	150
#	13108
#	24088
#	36548
#	51245
#	65705
#	81447
#	96550
#	110865
#	124616
#	136759
#	151636
#
# Disc length: 2184 seconds
#
# Revision: 0
# Processed by: cddbd v1.5.2PL0 Copyright (c) Steve Scherf et al.
# Submitted via: audiograbber 1.82.02
#
DISCID=a208860c
DTITLE=Slim Dusty - Rodeo Riders
DYEAR=1979
DGENRE=Country
TTITLE0=Rough Riders
TTITLE1=Old Riders In The Grandstand
TTITLE2=Mareeba Rodeo Song
TTITLE3=Rope And Saddle Blues
TTITLE4=Rodeo Riders
TTITLE5=Not Too Much To Show
TTITLE6=Cattle Camp Reverie
TTITLE7=The Battle With The Roan
TTITLE8=Stock Horses
TTITLE9=Isa Rodeo
TTITLE10=How Will I Go With Him Mate
TTITLE11=Whoa Bullocks Whoa
EXTD=
EXTT0=
EXTT1=
EXTT2=
EXTT3=
EXTT4=
EXTT5=
EXTT6=
EXTT7=
EXTT8=
EXTT9=
EXTT10=
EXTT11=
PLAYORDER=
